<svg width="24" height="24" viewBox="0 0 24 24" fill="none" xmlns="http://www.w3.org/2000/svg">
<circle cx="12" cy="12" r="12" fill="#F7F9FB"/>
<path d="M19.2087 4.5L12.9583 9.18749L14.1206 6.425L19.2087 4.5Z" fill="#E17726" stroke="#E17726" stroke-width="0.25" stroke-linecap="round" stroke-linejoin="round"/>
<path d="M4.79132 4.5L10.9861 9.23124L9.87944 6.425L4.79132 4.5Z" fill="#E27625" stroke="#E27625" stroke-width="0.25" stroke-linecap="round" stroke-linejoin="round"/>
<path d="M16.9582 15.3687L15.2951 17.9437L18.8562 18.9375L19.8763 15.425L16.9582 15.3687Z" fill="#E27625" stroke="#E27625" stroke-width="0.25" stroke-linecap="round" stroke-linejoin="round"/>
<path d="M4.12976 15.425L5.14367 18.9375L8.69855 17.9437L7.04166 15.3687L4.12976 15.425Z" fill="#E27625" stroke="#E27625" stroke-width="0.25" stroke-linecap="round" stroke-linejoin="round"/>
<path d="M8.50686 11.0187L7.5177 12.5312L11.0417 12.6937L10.9242 8.84998L8.50686 11.0187Z" fill="#E27625" stroke="#E27625" stroke-width="0.25" stroke-linecap="round" stroke-linejoin="round"/>
<path d="M15.4929 11.0188L13.0386 8.80627L12.9582 12.6938L16.4821 12.5313L15.4929 11.0188Z" fill="#E27625" stroke="#E27625" stroke-width="0.25" stroke-linecap="round" stroke-linejoin="round"/>
<path d="M8.69861 17.9437L10.8315 16.9L8.99537 15.45L8.69861 17.9437Z" fill="#E27625" stroke="#E27625" stroke-width="0.25" stroke-linecap="round" stroke-linejoin="round"/>
<path opacity="0.8" d="M13.1685 16.9L15.2952 17.9437L15.0046 15.45L13.1685 16.9Z" fill="#E27625" stroke="#E27625" stroke-width="0.25" stroke-linecap="round" stroke-linejoin="round"/>
<path d="M15.2952 17.9438L13.1685 16.9001L13.3415 18.3001L13.323 18.8938L15.2952 17.9438Z" fill="#D5BFB2" stroke="#D5BFB2" stroke-width="0.25" stroke-linecap="round" stroke-linejoin="round"/>
<path d="M8.69861 17.9438L10.677 18.8938L10.6646 18.3001L10.8315 16.9001L8.69861 17.9438Z" fill="#D5BFB2" stroke="#D5BFB2" stroke-width="0.25" stroke-linecap="round" stroke-linejoin="round"/>
<path d="M10.714 14.525L8.94586 14L10.1947 13.4188L10.714 14.525Z" fill="#233447" stroke="#233447" stroke-width="0.25" stroke-linecap="round" stroke-linejoin="round"/>
<path d="M13.2859 14.525L13.8053 13.4188L15.0603 14L13.2859 14.525Z" fill="#233447" stroke="#233447" stroke-width="0.25" stroke-linecap="round" stroke-linejoin="round"/>
<path d="M8.69855 17.9437L9.00769 15.3687L7.04169 15.425L8.69855 17.9437Z" fill="#CC6228" stroke="#CC6228" stroke-width="0.25" stroke-linecap="round" stroke-linejoin="round"/>
<path d="M14.9922 15.3687L15.2951 17.9437L16.9582 15.425L14.9922 15.3687Z" fill="#CC6228" stroke="#CC6228" stroke-width="0.25" stroke-linecap="round" stroke-linejoin="round"/>
<path d="M16.4821 12.5312L12.9582 12.6937L13.2858 14.525L13.8052 13.4187L15.0602 14L16.4821 12.5312Z" fill="#CC6228" stroke="#CC6228" stroke-width="0.25" stroke-linecap="round" stroke-linejoin="round"/>
<path d="M8.94583 14L10.1947 13.4187L10.714 14.525L11.0417 12.6937L7.5177 12.5312L8.94583 14Z" fill="#CC6228" stroke="#CC6228" stroke-width="0.25" stroke-linecap="round" stroke-linejoin="round"/>
<path d="M7.51782 12.5312L8.99542 15.45L8.94593 14L7.51782 12.5312Z" fill="#E27525" stroke="#E27525" stroke-width="0.25" stroke-linecap="round" stroke-linejoin="round"/>
<path d="M15.0603 14L15.0046 15.45L16.4822 12.5312L15.0603 14Z" fill="#E27525" stroke="#E27525" stroke-width="0.25" stroke-linecap="round" stroke-linejoin="round"/>
<path d="M11.0419 12.6937L10.7142 14.525L11.1284 16.6875L11.2211 13.8375L11.0419 12.6937Z" fill="#E27525" stroke="#E27525" stroke-width="0.25" stroke-linecap="round" stroke-linejoin="round"/>
<path d="M12.9583 12.6937L12.7852 13.8313L12.8717 16.6875L13.2859 14.525L12.9583 12.6937Z" fill="#E27525" stroke="#E27525" stroke-width="0.25" stroke-linecap="round" stroke-linejoin="round"/>
<path d="M13.2859 14.525L12.8717 16.6875L13.1685 16.9L15.0047 15.45L15.0603 14L13.2859 14.525Z" fill="#F5841F" stroke="#F5841F" stroke-width="0.25" stroke-linecap="round" stroke-linejoin="round"/>
<path d="M8.94586 14L8.99535 15.45L10.8315 16.9L11.1283 16.6875L10.714 14.525L8.94586 14Z" fill="#F5841F" stroke="#F5841F" stroke-width="0.25" stroke-linecap="round" stroke-linejoin="round"/>
<path d="M13.323 18.8937L13.3415 18.3L13.1808 18.1625H10.8192L10.6646 18.3L10.677 18.8937L8.69861 17.9437L9.39103 18.5187L10.7944 19.5H13.1994L14.6089 18.5187L15.2952 17.9437L13.323 18.8937Z" fill="#C0AC9D" stroke="#C0AC9D" stroke-width="0.25" stroke-linecap="round" stroke-linejoin="round"/>
<path d="M13.1684 16.9L12.8716 16.6875H11.1282L10.8315 16.9L10.6646 18.3L10.8191 18.1625H13.1808L13.3415 18.3L13.1684 16.9Z" fill="#161616" stroke="#161616" stroke-width="0.25" stroke-linecap="round" stroke-linejoin="round"/>
<path d="M19.4744 9.49373L20 6.90625L19.2086 4.5L13.1685 9.03126L15.493 11.0187L18.7758 11.9875L19.4992 11.1313L19.1839 10.9L19.6847 10.4375L19.3014 10.1375L19.8021 9.74999L19.4744 9.49373Z" fill="#763E1A" stroke="#763E1A" stroke-width="0.25" stroke-linecap="round" stroke-linejoin="round"/>
<path d="M4 6.90625L4.53169 9.49373L4.19166 9.74999L4.69861 10.1375L4.3153 10.4375L4.81607 10.9L4.50077 11.1313L5.22411 11.9875L8.50698 11.0187L10.8315 9.03126L4.79135 4.5L4 6.90625Z" fill="#763E1A" stroke="#763E1A" stroke-width="0.25" stroke-linecap="round" stroke-linejoin="round"/>
<path d="M18.7759 11.9875L15.493 11.0187L16.4822 12.5312L15.0046 15.45L16.9583 15.425H19.8763L18.7759 11.9875Z" fill="#F5841F" stroke="#F5841F" stroke-width="0.25" stroke-linecap="round" stroke-linejoin="round"/>
<path d="M8.50686 11.0187L5.22404 11.9875L4.12976 15.425H7.04166L8.99527 15.45L7.5177 12.5312L8.50686 11.0187Z" fill="#F5841F" stroke="#F5841F" stroke-width="0.25" stroke-linecap="round" stroke-linejoin="round"/>
<path d="M12.9582 12.6937L13.1684 9.03121L14.1205 6.42499H9.87939L10.8315 9.03121L11.0417 12.6937L11.122 13.8437L11.1282 16.6875H12.8717L12.8778 13.8437L12.9582 12.6937Z" fill="#F5841F" stroke="#F5841F" stroke-width="0.25" stroke-linecap="round" stroke-linejoin="round"/>
</svg>
