<svg width="20" height="20" viewBox="0 0 20 20" fill="none" xmlns="http://www.w3.org/2000/svg">
<path d="M4.16602 3.33366C3.945 3.33366 3.73304 3.42146 3.57676 3.57774C3.42048 3.73402 3.33268 3.94598 3.33268 4.16699V5.83366C3.33268 6.05467 3.24489 6.26663 3.0886 6.42291C2.93232 6.5792 2.72036 6.66699 2.49935 6.66699C2.27834 6.66699 2.06637 6.5792 1.91009 6.42291C1.75381 6.26663 1.66602 6.05467 1.66602 5.83366V4.16699C1.66602 3.50395 1.92941 2.86807 2.39825 2.39923C2.86709 1.93038 3.50297 1.66699 4.16602 1.66699H5.83268C6.0537 1.66699 6.26566 1.75479 6.42194 1.91107C6.57822 2.06735 6.66602 2.27931 6.66602 2.50033C6.66602 2.72134 6.57822 2.9333 6.42194 3.08958C6.26566 3.24586 6.0537 3.33366 5.83268 3.33366H4.16602ZM15.8327 16.667C16.0537 16.667 16.2657 16.5792 16.4219 16.4229C16.5782 16.2666 16.666 16.0547 16.666 15.8337V14.167C16.666 13.946 16.7538 13.734 16.9101 13.5777C17.0664 13.4215 17.2783 13.3337 17.4993 13.3337C17.7204 13.3337 17.9323 13.4215 18.0886 13.5777C18.2449 13.734 18.3327 13.946 18.3327 14.167V15.8337C18.3327 16.4967 18.0693 17.1326 17.6005 17.6014C17.1316 18.0703 16.4957 18.3337 15.8327 18.3337H14.166C13.945 18.3337 13.733 18.2459 13.5768 18.0896C13.4205 17.9333 13.3327 17.7213 13.3327 17.5003C13.3327 17.2793 13.4205 17.0674 13.5768 16.9111C13.733 16.7548 13.945 16.667 14.166 16.667H15.8327ZM16.666 4.16699C16.666 3.94598 16.5782 3.73402 16.4219 3.57774C16.2657 3.42146 16.0537 3.33366 15.8327 3.33366H14.166C13.945 3.33366 13.733 3.24586 13.5768 3.08958C13.4205 2.9333 13.3327 2.72134 13.3327 2.50033C13.3327 2.27931 13.4205 2.06735 13.5768 1.91107C13.733 1.75479 13.945 1.66699 14.166 1.66699H15.8327C16.4957 1.66699 17.1316 1.93038 17.6005 2.39923C18.0693 2.86807 18.3327 3.50395 18.3327 4.16699V5.83366C18.3327 6.05467 18.2449 6.26663 18.0886 6.42291C17.9323 6.5792 17.7204 6.66699 17.4993 6.66699C17.2783 6.66699 17.0664 6.5792 16.9101 6.42291C16.7538 6.26663 16.666 6.05467 16.666 5.83366V4.16699ZM4.16602 16.667C3.945 16.667 3.73304 16.5792 3.57676 16.4229C3.42048 16.2666 3.33268 16.0547 3.33268 15.8337V14.167C3.33268 13.946 3.24489 13.734 3.0886 13.5777C2.93232 13.4215 2.72036 13.3337 2.49935 13.3337C2.27834 13.3337 2.06637 13.4215 1.91009 13.5777C1.75381 13.734 1.66602 13.946 1.66602 14.167V15.8337C1.66602 16.4967 1.92941 17.1326 2.39825 17.6014C2.86709 18.0703 3.50297 18.3337 4.16602 18.3337H5.83268C6.0537 18.3337 6.26566 18.2459 6.42194 18.0896C6.57822 17.9333 6.66602 17.7213 6.66602 17.5003C6.66602 17.2793 6.57822 17.0674 6.42194 16.9111C6.26566 16.7548 6.0537 16.667 5.83268 16.667H4.16602ZM6.66602 5.00033C6.22399 5.00033 5.80007 5.17592 5.4875 5.48848C5.17494 5.80104 4.99935 6.22497 4.99935 6.66699V9.16699H3.33268C3.11167 9.16699 2.89971 9.25479 2.74343 9.41107C2.58715 9.56735 2.49935 9.77931 2.49935 10.0003C2.49935 10.2213 2.58715 10.4333 2.74343 10.5896C2.89971 10.7459 3.11167 10.8337 3.33268 10.8337H16.666C16.887 10.8337 17.099 10.7459 17.2553 10.5896C17.4116 10.4333 17.4993 10.2213 17.4993 10.0003C17.4993 9.77931 17.4116 9.56735 17.2553 9.41107C17.099 9.25479 16.887 9.16699 16.666 9.16699H14.9993V6.66699C14.9993 6.22497 14.8238 5.80104 14.5112 5.48848C14.1986 5.17592 13.7747 5.00033 13.3327 5.00033H6.66602ZM14.9993 11.667H4.99935V13.3337C4.99935 13.7757 5.17494 14.1996 5.4875 14.5122C5.80007 14.8247 6.22399 15.0003 6.66602 15.0003H13.3327C13.7747 15.0003 14.1986 14.8247 14.5112 14.5122C14.8238 14.1996 14.9993 13.7757 14.9993 13.3337V11.667Z" fill="#0DBE5E"/>
</svg>
